HIERARCHY
ROOT root
{
	OFFSET 0.000000 0.000000 0.000000
	CHANNELS 6 Xposition Yposition Zposition Zrotation Yrotation Xrotation
	JOINT lhip
	{
		OFFSET 0.058581 -0.082280 -0.017664
		CHANNELS 3 Zrotation Yrotation Xrotation
		JOINT lknee
		{
			OFFSET 0.043451 -0.386469 0.008037
			CHANNELS 3 Zrotation Yrotation Xrotation
			JOINT lankle
			{
				OFFSET -0.014790 -0.426874 -0.037428
				CHANNELS 3 Zrotation Yrotation Xrotation
				JOINT ltoe
				{
					OFFSET 0.041054 -0.060286 0.122042
					CHANNELS 3 Zrotation Yrotation Xrotation
					End Site
					{
						OFFSET 0.000000 0.000000 0.000000
					}
				}
			}
		}
	}
	JOINT rhip
	{
		OFFSET -0.060310 -0.090513 -0.013543
		CHANNELS 3 Zrotation Yrotation Xrotation
		JOINT rknee
		{
			OFFSET -0.043257 -0.383688 -0.004843
			CHANNELS 3 Zrotation Yrotation Xrotation
			JOINT rankle
			{
				OFFSET 0.019056 -0.420046 -0.034562
				CHANNELS 3 Zrotation Yrotation Xrotation
				JOINT rtoe
				{
					OFFSET -0.034840 -0.062106 0.130323
					CHANNELS 3 Zrotation Yrotation Xrotation
					End Site
					{
						OFFSET 0.000000 0.000000 0.000000
					}
				}
			}
		}
	}
	JOINT lowerback
	{
		OFFSET 0.004439 0.124404 -0.038385
		CHANNELS 3 Zrotation Yrotation Xrotation
		JOINT upperback
		{
			OFFSET 0.004488 0.137956 0.026820
			CHANNELS 3 Zrotation Yrotation Xrotation
			JOINT chest
			{
				OFFSET -0.002265 0.056032 0.002855
				CHANNELS 3 Zrotation Yrotation Xrotation
				JOINT lowerneck
				{
					OFFSET -0.013390 0.211636 -0.033468
					CHANNELS 3 Zrotation Yrotation Xrotation
					JOINT upperneck
					{
						OFFSET 0.010113 0.088937 0.050410
						CHANNELS 3 Zrotation Yrotation Xrotation
						End Site
						{
							OFFSET 0.000000 0.000000 0.000000
						}
					}
				}
				JOINT lclavicle
				{
					OFFSET 0.071702 0.114000 -0.018898
					CHANNELS 3 Zrotation Yrotation Xrotation
					JOINT lshoulder
					{
						OFFSET 0.122921 0.045205 -0.019046
						CHANNELS 3 Zrotation Yrotation Xrotation
						JOINT lelbow
						{
							OFFSET 0.255332 -0.015649 -0.022946
							CHANNELS 3 Zrotation Yrotation Xrotation
							JOINT lwrist
							{
								OFFSET 0.265709 0.012698 -0.007375
								CHANNELS 3 Zrotation Yrotation Xrotation
								End Site
								{
									OFFSET 0.000000 0.000000 0.000000
								}
							}
						}
					}
				}
				JOINT rclavicle
				{
					OFFSET -0.082954 0.112472 -0.023707
					CHANNELS 3 Zrotation Yrotation Xrotation
					JOINT rshoulder
					{
						OFFSET -0.113228 0.046853 -0.008472
						CHANNELS 3 Zrotation Yrotation Xrotation
						JOINT relbow
						{
							OFFSET -0.260127 -0.014369 -0.031269
							CHANNELS 3 Zrotation Yrotation Xrotation
							JOINT rwrist
							{
								OFFSET -0.269108 0.006794 -0.006027
								CHANNELS 3 Zrotation Yrotation Xrotation
								End Site
								{
									OFFSET 0.000000 0.000000 0.000000
								}
							}
						}
					}
				}
			}
		}
	}
}
MOTION
Frames: 16
Frame Time: 0.033333
-2.082457 0.618659 0.806029 63.010853 -3.924640 88.670383 15.552835 5.651194 -47.414071 -6.543242 24.778460 47.646451 4.254519 12.023691 -11.576663 0.000000 -0.000000 0.000000 -25.077787 -0.150043 28.302712 6.358224 23.119455 27.785787 21.125531 4.524496 31.232248 0.000000 -0.000000 0.000000 -4.685615 18.259389 12.016386 -4.166966 6.366859 -2.205128 -2.741658 12.428590 -1.992365 0.907331 -2.521799 -4.854867 1.002512 -3.043441 1.660057 -20.762175 20.513350 3.219880 -38.513326 38.037593 -4.985427 8.499622 -29.246961 6.034112 2.457623 -22.991411 -24.697724 23.039596 14.638581 4.466904 26.562370 32.472404 -0.188831 -16.323778 49.144304 -17.439826 -13.322010 15.800968 -9.154739 
-2.020788 0.620666 0.816709 66.433641 -3.037323 90.475032 13.409668 2.503010 -47.789607 -5.185827 24.309217 51.206378 6.116957 11.510185 -17.788730 0.000000 -0.000000 0.000000 -20.386530 -1.096432 26.781488 5.217594 21.922310 29.962174 18.392306 4.121321 22.352235 0.000000 -0.000000 0.000000 -5.170280 17.443907 13.314513 -3.902345 5.327186 -5.908691 -1.993606 10.346358 0.556489 1.191565 -3.445665 -5.782899 -0.234656 -2.650980 1.340351 -24.638766 19.604639 2.630346 -39.347874 33.288097 -3.407988 9.940587 -30.231290 1.835025 5.721404 -21.466431 -23.012422 24.537703 12.457608 3.691785 29.525945 29.816484 3.942862 -17.194598 49.781805 -17.272748 -13.010236 15.150896 -7.709053 
-1.963611 0.623032 0.833886 69.948515 -2.879192 91.491713 11.477866 -1.849096 -45.264203 -5.229064 24.094889 50.775029 7.209239 11.538379 -21.720811 0.000000 -0.000000 0.000000 -15.895420 -0.344365 24.189971 4.797598 17.308713 33.078188 11.631777 2.342737 9.606007 0.000000 -0.000000 0.000000 -5.449582 16.423211 10.933581 -3.068181 4.137857 -0.999290 -2.289431 9.099766 0.230780 1.159017 -1.482722 -8.992294 -0.122848 -3.742799 2.752167 -26.747790 15.398333 2.934174 -46.075444 25.265147 -3.545615 15.391447 -28.570405 -4.932933 5.572614 -21.401779 -23.822374 27.446285 11.171835 4.351447 31.980322 26.877892 4.465969 -18.634071 48.172165 -15.521716 -10.752469 16.234527 -7.482161 
-1.892976 0.624274 0.865458 72.491785 -2.100825 92.215793 7.505463 -3.583368 -38.585914 -5.867013 20.463481 46.294487 8.281363 12.544122 -25.257766 0.000000 -0.000000 0.000000 -11.383164 -0.047238 17.507390 3.459340 11.467767 39.918326 7.939199 -0.828425 -5.236485 0.000000 -0.000000 0.000000 -5.265992 13.921297 10.789258 -2.543126 3.835014 -0.835268 -2.413720 7.902691 0.213094 2.168569 0.383377 -9.516085 -0.420027 -4.067042 4.007914 -28.891466 11.710957 1.831330 -48.761605 16.786263 0.499644 15.542073 -27.448212 -5.823820 9.600877 -21.606683 -25.957206 29.860972 8.816082 4.214753 38.574396 20.522002 8.710856 -19.036496 44.663415 -13.388708 -9.261526 13.948026 -7.441334 
-1.851856 0.625088 0.887060 74.050367 -2.090435 92.133440 4.880383 -4.842509 -32.881748 -6.453608 18.155214 41.377004 8.989471 13.373035 -25.894924 0.000000 -0.000000 0.000000 -9.389452 0.668919 13.115232 1.801873 6.335535 43.703284 4.693362 -6.465715 -9.886842 0.000000 -0.000000 0.000000 -5.761925 12.337722 12.105444 -2.416678 3.802329 -2.582081 -1.895492 6.665327 0.062995 2.337254 0.305580 -8.471466 0.083826 -3.020437 4.581360 -29.516091 10.196201 1.343245 -50.370900 11.700673 2.712021 16.337087 -28.285620 -4.814186 7.873956 -22.060971 -24.472875 30.706798 6.960460 3.944559 42.305585 15.283349 11.674271 -18.238713 42.589563 -10.754125 -6.361654 13.983505 -6.548639 
-1.794737 0.625634 0.913974 76.413014 -1.953849 91.204232 1.087153 -5.583333 -23.665360 -6.941527 13.656297 33.514852 9.849171 14.087747 -25.277171 0.000000 -0.000000 0.000000 -7.516447 -0.026751 7.122508 -1.104037 0.583507 48.500888 3.015534 -10.828312 -17.565694 0.000000 -0.000000 0.000000 -5.517901 9.972499 12.974958 -2.020419 3.532583 -3.720357 -1.443420 4.954530 1.354356 2.069420 0.219349 -7.743395 -0.202475 -2.584476 4.461574 -30.394687 8.771131 0.088356 -52.121571 3.873630 8.294932 15.923222 -30.689947 -4.149887 11.065582 -19.747409 -26.906843 31.105938 3.765685 2.050811 46.442753 9.700546 16.284508 -16.652064 39.098539 -6.611840 -4.399218 13.592328 -4.733817 
-1.736967 0.625604 0.939063 78.642665 -1.369372 89.755163 -2.133952 -4.843530 -13.355121 -6.551500 7.683053 24.741002 8.913431 14.659771 -23.490943 0.000000 -0.000000 0.000000 -4.908719 0.414272 1.996531 -1.824721 -1.740499 51.112602 2.619344 -11.461708 -22.050845 0.000000 -0.000000 0.000000 -4.446989 7.129061 13.953758 -1.836534 2.942363 -4.459334 -1.206364 3.508017 1.587992 1.354676 1.702023 -6.667732 0.873192 -1.260885 5.453552 -30.284109 5.788658 -0.160984 -54.942696 -2.900505 10.124978 16.534954 -32.242061 -5.241879 10.663215 -19.777598 -27.934076 31.380209 1.866602 2.247137 48.213281 2.632182 17.320106 -14.719728 38.138787 -0.243208 -0.859638 14.602889 -0.560197 
-1.680622 0.626728 0.958212 81.390665 -0.479049 89.200127 -3.369568 -3.310152 -4.990569 -6.095693 2.499866 17.583799 7.911645 13.977591 -21.371613 0.000000 -0.000000 0.000000 -2.650662 0.641541 -4.717097 -0.409540 -3.739648 51.711608 1.095872 -10.626470 -24.260281 0.000000 -0.000000 0.000000 -3.116502 3.695039 13.514767 -1.447548 1.909680 -4.298990 -1.116583 1.775534 1.264101 0.863535 3.074936 -4.939607 1.640769 0.593255 5.779856 -29.597060 2.563946 -0.536701 -57.279590 -9.794896 11.910140 17.652977 -32.776985 -8.687654 10.318150 -20.648907 -30.006473 30.120840 -0.321661 2.517855 49.839026 -3.948363 18.049055 -12.230734 36.972424 5.346293 3.279118 14.580448 -0.402022 
-1.625831 0.627113 0.970444 84.834843 0.016976 88.796164 -3.295396 -1.926982 2.251266 -6.026452 -2.793387 12.028593 6.041032 12.727480 -18.750867 0.000000 -0.000000 0.000000 -1.123834 1.098473 -12.022607 0.871360 -5.387594 50.977587 3.365724 -10.276707 -23.925712 0.000000 -0.000000 0.000000 -2.740767 0.317722 13.282240 -0.723312 0.474363 -4.719769 -0.690072 -0.571739 1.340362 0.273891 4.378224 -3.781724 2.390408 2.039369 6.349301 -28.688686 -0.033067 -1.288390 -57.670572 -16.777861 13.654151 17.722030 -34.514498 -12.756790 11.750285 -20.394545 -30.728684 28.436259 -3.175519 1.842065 49.894093 -9.452887 18.655670 -9.835270 35.064012 8.482151 6.266554 13.279441 -0.013116 
-1.557877 0.627547 0.976890 89.752015 0.591702 87.700704 -1.668564 0.064224 10.775148 -5.672400 -9.725454 7.094418 3.219714 10.557710 -16.708526 0.000000 -0.000000 0.000000 -0.396992 2.209911 -20.087583 2.555878 -7.004470 47.073479 5.118182 -8.929125 -23.590043 0.000000 -0.000000 0.000000 -2.362095 -4.220565 14.131957 0.075146 -1.918439 -4.817161 -0.214832 -3.620817 0.964813 -0.045702 6.742950 -2.370696 3.268513 4.183879 5.958542 -26.054493 -3.479649 -1.907313 -55.814638 -25.318472 14.011957 18.438518 -36.464459 -17.972856 11.374173 -21.912317 -30.972991 26.222538 -6.144234 1.144019 48.546763 -15.485203 18.224102 -8.868729 32.017734 10.034195 9.158600 12.932243 1.288012 
-1.502499 0.627818 0.974603 93.260504 0.907088 86.515362 0.644391 1.704792 17.485347 -5.691245 -15.250547 3.953075 0.718141 8.625010 -15.197786 0.000000 -0.000000 0.000000 -0.743439 2.924176 -25.585998 2.504865 -8.374341 42.118598 5.885207 -9.286995 -22.182416 0.000000 -0.000000 0.000000 -2.461362 -7.571313 15.149736 0.648614 -3.604927 -4.562218 0.357394 -5.834811 0.539338 -0.405224 8.163658 -1.253422 3.532189 6.024122 5.268946 -23.386843 -5.760971 -2.293786 -51.529451 -31.939264 12.768457 18.609664 -38.162938 -21.404055 10.209004 -23.024030 -31.127653 24.634650 -9.339577 0.129159 44.518233 -19.701174 18.094396 -7.368216 31.891130 10.251510 10.560587 12.900431 1.736210 
-1.445659 0.628628 0.964551 96.005762 0.887878 85.814660 2.803283 2.609198 23.112024 -5.609315 -19.389979 2.052409 -0.713511 7.560196 -15.419319 0.000000 -0.000000 0.000000 -2.040317 2.742553 -30.897748 2.401973 -9.938080 36.139163 7.338438 -11.274796 -19.083185 0.000000 -0.000000 0.000000 -2.771937 -10.143057 15.298932 1.147226 -5.025710 -4.523582 0.779193 -7.940642 0.479656 -0.416129 8.513060 -0.526356 3.373787 7.585773 5.270665 -20.720208 -7.875768 -2.045111 -44.810889 -38.303449 9.221250 18.822665 -38.071985 -23.783544 9.835213 -24.602809 -31.286523 22.365338 -11.612338 -0.335872 41.331049 -22.832799 17.782169 -7.640245 29.062210 8.893165 11.884154 12.911514 0.663071 
-1.387216 0.630233 0.948481 99.071960 0.763265 84.868684 5.125140 3.356226 28.110044 -5.401686 -23.504204 2.047263 -2.188308 6.730978 -17.006713 0.000000 -0.000000 0.000000 -3.664983 1.497921 -35.119459 1.521970 -11.964518 30.306218 8.473143 -13.788518 -17.275185 0.000000 -0.000000 0.000000 -2.792610 -12.457298 15.212551 1.403545 -6.750944 -3.927533 0.829982 -10.030003 0.849585 -0.749325 9.859063 1.384313 3.406639 9.268374 3.255968 -17.157431 -9.434421 -2.718221 -36.125302 -43.345376 3.495526 17.560055 -37.099047 -24.549992 9.011009 -25.786781 -31.754219 19.458777 -14.144127 -0.947085 38.781804 -24.742328 16.611070 -8.055645 25.456737 6.742027 12.477913 12.399088 -0.603078 
-1.327270 0.631430 0.928433 101.750997 0.679364 84.369969 8.241601 3.847869 32.376196 -5.950807 -27.280956 2.872921 -4.058448 5.324103 -18.219563 0.000000 -0.000000 0.000000 -5.358836 0.218859 -37.754404 2.173882 -12.654301 22.337336 8.897233 -15.208608 -16.391067 0.000000 -0.000000 0.000000 -2.576422 -14.256855 14.896169 1.647987 -8.125356 -3.437381 0.867171 -11.795411 1.025030 -1.130051 10.174534 2.649229 3.061147 10.202911 1.719166 -13.227597 -10.346071 -3.238487 -27.832612 -47.397078 -3.215907 17.189171 -35.017715 -25.469765 7.720673 -26.898175 -30.783170 16.193645 -17.166927 -1.831872 36.346577 -26.435343 14.657845 -8.645358 22.882323 3.514516 12.919132 12.516257 -3.434215 
-1.265782 0.632525 0.906838 104.712928 0.491425 83.930644 11.578246 3.745587 35.708140 -7.036425 -31.423651 5.043035 -5.684632 3.940556 -18.382724 0.000000 -0.000000 0.000000 -7.393899 -1.934575 -40.185437 3.412858 -12.031357 17.382929 10.949496 -14.066168 -14.467481 0.000000 -0.000000 0.000000 -2.449911 -15.551402 14.798325 2.208360 -9.262233 -2.798965 1.157914 -13.404505 1.577907 -1.542354 11.236020 2.805061 2.572988 10.707751 0.009088 -9.656185 -10.292341 -4.689445 -21.199164 -50.837844 -9.186574 17.548546 -33.556334 -27.415984 5.935927 -26.693009 -30.344019 14.022726 -20.623138 -3.137341 34.090175 -27.471405 12.221928 -10.646191 20.403637 0.341920 14.697668 11.617425 -4.486220 
-1.203450 0.634819 0.886467 108.149440 0.807414 83.870629 14.766666 2.659750 38.076057 -7.788086 -35.473774 7.770442 -7.660782 3.702531 -18.355094 0.000000 -0.000000 0.000000 -10.087052 -3.130280 -42.604032 4.128537 -12.049139 17.700770 10.876820 -14.867938 -14.969676 0.000000 -0.000000 0.000000 -1.868194 -16.938380 14.795885 3.174181 -10.528656 -1.374810 1.776943 -14.424449 1.436777 -1.459244 11.618435 1.511925 1.977542 10.319616 -1.189042 -6.911583 -11.337416 -4.874511 -14.187220 -51.934335 -15.931022 19.929264 -33.419715 -30.246451 5.861435 -26.633467 -31.308385 12.883218 -21.994972 -3.774000 33.704464 -28.895036 9.481213 -13.791412 17.706608 -2.108554 15.610787 10.092941 -3.081768 
